<?xml version="1.0" encoding="utf-8"?>
<svg fill="none" viewBox="0 0 512 512" xmlns="http://www.w3.org/2000/svg">
  <circle cx="256" cy="256" r="256" fill="#2D323B"/>
  <circle cx="256" cy="256" r="24" style="fill: rgb(203, 129, 218);"/>
  <path fill="#CB81DA" fill-rule="evenodd" d="M165 170c4 32 16 72 38 113 21 42 46 76 70 97 12 11 24 18 34 22s18 3 24 0c5-3 10-9 13-18 3-10 3-23 2-38-3-31-14-69-34-109a6 6 0 0111-5c20 41 32 81 35 113 1 16 1 30-3 42-3 11-9 21-19 26s-22 4-34 0c-11-4-24-13-37-24-25-23-51-58-73-100s-35-84-39-118c-2-17-1-32 2-44s9-22 20-27c9-6 21-5 33-1 11 5 24 13 36 24a6 6 0 01-8 9c-11-11-23-18-32-21-10-4-18-4-24-1s-11 10-13 20c-3 10-4 24-2 40z" clip-rule="evenodd"/>
  <path fill="#CB81DA" fill-rule="evenodd" d="M100 268c6 7 16 14 29 20a6 6 0 01-5 11c-14-7-25-14-33-23-8-8-12-18-12-29 1-11 7-21 17-29s23-14 39-20c33-10 76-15 124-13 47 2 90 12 121 26 16 7 29 15 38 23 8 9 14 20 13 31 0 10-6 20-14 27-9 8-20 14-34 19a6 6 0 11-5-11c14-5 24-10 31-17 7-6 10-12 10-19 1-6-2-14-10-21-7-8-19-15-34-21-29-13-70-23-117-25-46-2-88 3-119 13-15 5-27 11-35 18-9 6-12 13-13 20 0 6 3 13 9 20z" clip-rule="evenodd"/>
  <path fill="#CB81DA" fill-rule="evenodd" d="M189 396c10-3 22-9 35-18a6 6 0 116 10c-13 10-26 16-38 19s-24 2-33-4-14-16-16-29c-2-12-1-28 2-44 8-33 26-73 52-113s56-72 84-92c13-9 27-16 39-19 12-4 24-3 34 3 9 6 14 17 16 29 2 13 1 28-3 44a6 6 0 01-12-2c4-16 5-29 3-40-2-10-5-17-11-21s-14-4-24-2c-10 3-22 9-35 18-26 19-56 50-81 89-26 38-43 77-50 109-3 15-4 29-3 39 2 11 6 18 12 21 5 4 13 5 23 3z" clip-rule="evenodd"/>
  <path fill-rule="evenodd" d="M 152.464 162.066 C 156.464 194.066 171.324 242.647 193.324 283.647 C 214.324 325.647 238.609 356.072 262.609 377.072 C 274.609 388.072 297.335 397.932 307.335 401.932 C 317.335 405.932 325.335 404.932 331.335 401.932 C 336.335 398.932 341.335 392.932 344.335 383.932 C 347.335 373.932 347.335 360.932 346.335 345.932 C 343.335 314.932 332.335 276.932 312.335 236.932 C 310.41 232.698 313.791 227.969 318.42 228.419 C 320.568 228.628 322.441 229.967 323.335 231.932 C 343.335 272.932 355.335 312.932 358.335 344.932 C 359.335 360.932 359.335 374.932 355.335 386.932 C 352.335 397.932 346.335 407.932 336.335 412.932 C 326.335 417.932 314.335 416.932 302.335 412.932 C 291.335 408.932 278.335 399.932 265.335 388.932 C 240.335 365.932 214.335 330.932 192.335 288.932 C 170.335 246.932 157.335 204.932 153.335 170.932 C 151.335 153.932 150.464 146.066 152.464 162.066 Z" clip-rule="evenodd" style="fill: rgb(225, 241, 241);"/>
  <path fill-rule="evenodd" d="M 125.99 202.454 C 110.99 207.454 85.862 225.605 95.862 217.605 C 105.862 209.605 118.862 203.605 134.862 197.605 C 167.862 187.605 210.862 182.605 258.862 184.605 C 305.862 186.605 348.862 196.605 379.862 210.605 C 395.862 217.605 408.862 225.605 417.862 233.605 C 425.862 242.605 431.862 253.605 430.862 264.605 C 430.862 274.605 424.862 284.605 416.862 291.605 C 407.862 299.605 396.862 305.605 382.862 310.605 C 378.628 312.529 373.898 309.149 374.349 304.52 C 374.558 302.371 375.897 300.498 377.862 299.605 C 391.862 294.605 401.862 289.605 408.862 282.605 C 415.862 276.605 418.862 270.605 418.862 263.605 C 419.862 257.605 416.862 249.605 408.862 242.605 C 401.862 234.605 376.275 217.593 361.275 211.593 C 332.275 198.593 291.99 189.309 244.99 187.309 C 198.99 185.309 156.99 192.454 125.99 202.454 Z" clip-rule="evenodd" style="fill: rgb(225, 241, 241);"/>
  <path fill-rule="evenodd" d="M 188.861 396.16 C 198.861 393.16 210.861 387.16 223.861 378.16 C 227.15 374.917 232.716 376.451 233.88 380.921 C 234.687 384.02 232.918 387.206 229.861 388.16 C 216.861 398.16 203.861 404.16 191.861 407.16 C 179.861 410.16 167.861 409.16 158.861 403.16 C 149.861 397.16 144.861 387.16 142.861 374.16 C 140.861 362.16 141.861 346.16 144.861 330.16 C 152.861 297.16 170.861 257.16 196.861 217.16 C 222.861 177.16 252.861 145.16 280.861 125.16 C 293.861 116.16 300.861 112.573 287.861 121.573 C 261.861 140.573 231.861 169.428 206.861 208.428 C 180.861 246.428 165.291 280.423 158.291 312.423 C 155.291 327.423 152.861 362.16 153.861 372.16 C 155.861 383.16 159.861 390.16 165.861 393.16 C 170.861 397.16 178.861 398.16 188.861 396.16 Z" clip-rule="evenodd" style="fill: rgb(225, 241, 241);"/>
</svg>