<?xml version="1.0" encoding="utf-8"?>
<svg viewBox="0 0 500 500" xmlns="http://www.w3.org/2000/svg">
  <circle cx="253.511" cy="259.831" r="256" fill="#2D323B" style="" transform="matrix(0.958853, 0, 0, 0.964339, 6.813314, -0.054394)"/>
  <circle cx="253.511" cy="259.831" r="24" style="fill: rgb(203, 129, 218);" transform="matrix(0.958853, 0, 0, 0.964339, 6.813314, -0.054394)"/>
  <path fill="#CB81DA" fill-rule="evenodd" d="M 162.638 167.578 C 166.473 198.437 177.979 237.011 199.074 276.549 C 219.21 317.05 243.181 349.838 266.194 370.089 C 277.7 380.697 289.206 387.447 298.794 391.305 C 308.383 395.163 316.054 394.198 321.807 391.305 C 326.601 388.412 331.396 382.626 334.272 373.947 C 337.148 364.304 337.148 351.767 336.19 337.302 C 333.314 307.407 322.766 270.762 303.589 232.189 C 301.744 228.107 304.986 223.545 309.424 223.98 C 311.483 224.181 313.28 225.473 314.137 227.367 C 333.314 266.905 344.82 305.479 347.696 336.338 C 348.655 351.767 348.655 365.267 344.82 376.84 C 341.943 387.447 336.19 397.091 326.601 401.912 C 317.013 406.734 305.507 405.77 294 401.912 C 283.453 398.056 270.988 389.376 258.523 378.768 C 234.552 356.588 209.621 322.836 188.527 282.335 C 167.432 241.832 154.967 201.33 151.131 168.542 C 149.214 152.148 150.173 137.683 153.049 126.112 C 155.926 114.54 161.678 104.896 172.226 100.075 C 180.856 94.288 192.362 95.253 203.868 99.11 C 214.415 103.931 226.881 111.647 238.387 122.254 C 241.708 125.224 240.588 130.696 236.371 132.105 C 234.413 132.757 232.258 132.312 230.716 130.933 C 220.169 120.326 208.663 113.575 200.033 110.682 C 190.444 106.824 182.773 106.824 177.021 109.717 C 171.267 112.61 166.473 119.361 164.556 129.004 C 161.678 138.648 160.72 152.148 162.638 167.578 Z" clip-rule="evenodd" style=""/>
  <path fill="#CB81DA" fill-rule="evenodd" d="M 100.312 262.083 C 106.065 268.834 115.654 275.584 128.119 281.37 C 132.179 283.226 132.718 288.806 129.091 291.415 C 127.407 292.625 125.209 292.84 123.324 291.977 C 109.901 285.228 99.353 278.477 91.682 269.798 C 84.012 262.083 80.177 252.439 80.177 241.832 C 81.135 231.224 86.888 221.581 96.477 213.866 C 106.065 206.152 118.53 200.366 133.872 194.579 C 165.514 184.937 206.745 180.114 252.77 182.044 C 297.836 183.972 339.066 193.615 368.791 207.116 C 384.133 213.866 396.598 221.581 405.228 229.296 C 412.898 237.975 418.651 248.583 417.693 259.19 C 417.693 268.834 411.94 278.477 404.268 285.228 C 395.639 292.942 385.091 298.728 371.668 303.55 C 367.607 305.406 363.074 302.146 363.505 297.683 C 363.706 295.611 364.99 293.804 366.874 292.942 C 380.297 288.121 389.885 283.298 396.598 276.549 C 403.31 270.762 406.186 264.976 406.186 258.226 C 407.146 252.439 404.268 244.725 396.598 237.975 C 389.885 230.26 378.38 223.51 363.997 217.724 C 336.19 205.187 296.877 195.544 251.811 193.615 C 207.704 191.686 167.432 196.508 137.707 206.152 C 123.324 210.973 111.819 216.759 104.147 223.51 C 95.518 229.296 92.642 236.046 91.682 242.797 C 91.682 248.583 94.559 255.333 100.312 262.083 Z" clip-rule="evenodd" style=""/>
  <path fill="#CB81DA" fill-rule="evenodd" d="M 185.65 385.519 C 195.238 382.626 206.745 376.84 219.21 368.16 C 222.364 365.034 227.7 366.512 228.817 370.823 C 229.59 373.812 227.894 376.885 224.963 377.804 C 212.498 387.447 200.033 393.233 188.527 396.126 C 177.021 399.019 165.514 398.056 156.884 392.27 C 148.255 386.483 143.461 376.84 141.543 364.304 C 139.625 352.732 140.584 337.302 143.461 321.873 C 151.131 290.049 168.391 251.476 193.321 212.902 C 218.251 174.328 247.017 143.469 273.865 124.183 C 286.329 115.503 299.754 108.754 311.26 105.861 C 322.766 102.003 334.272 102.968 343.861 108.754 C 352.491 114.54 357.285 125.147 359.203 136.719 C 361.12 149.255 360.161 163.721 356.326 179.151 C 355.588 183.605 350.332 185.585 346.866 182.715 C 345.257 181.383 344.477 179.289 344.82 177.221 C 348.655 161.792 349.614 149.255 347.696 138.648 C 345.779 129.004 342.902 122.254 337.148 118.397 C 331.396 114.54 323.725 114.54 314.137 116.468 C 304.548 119.361 293.042 125.147 280.577 133.826 C 255.647 152.148 226.881 182.044 202.91 219.652 C 177.979 256.297 161.678 293.907 154.967 324.766 C 152.09 339.231 151.131 352.732 152.09 362.374 C 154.008 372.982 157.844 379.733 163.596 382.626 C 168.391 386.483 176.061 387.447 185.65 385.519 Z" clip-rule="evenodd" style=""/>
  <path fill-rule="evenodd" d="M 194.111 292.19 C 173.016 251.687 183.142 244.611 203.956 284.298 C 224.092 322.692 243.147 349.862 266.16 370.113 C 277.666 380.721 289.172 387.471 298.76 391.329 C 308.349 395.187 316.02 394.222 321.773 391.329 C 326.567 388.436 331.362 382.65 334.238 373.971 C 337.114 364.328 337.114 351.791 336.156 337.326 C 333.28 307.431 322.732 270.786 303.555 232.213 C 301.71 228.131 304.952 223.569 309.39 224.004 C 311.449 224.205 313.246 225.497 314.103 227.391 C 333.28 266.929 344.786 305.503 347.662 336.362 C 348.621 351.791 348.621 365.291 344.786 376.864 C 341.909 387.471 336.156 397.115 326.567 401.936 C 316.979 406.758 305.473 405.794 293.966 401.936 C 283.419 398.08 270.954 389.4 258.489 378.792 C 234.518 356.612 215.205 332.691 194.111 292.19 Z" clip-rule="evenodd" style="fill: rgb(255, 255, 255);"/>
  <path fill-rule="evenodd" d="M 251.834 193.591 C 207.727 191.662 206.768 180.09 252.793 182.02 C 297.859 183.948 339.089 193.591 368.814 207.092 C 384.156 213.842 396.621 221.557 405.251 229.272 C 412.921 237.951 418.674 248.559 417.716 259.166 C 417.716 268.81 411.963 278.453 404.291 285.204 C 395.662 292.918 385.114 298.704 371.691 303.526 C 367.63 305.382 363.097 302.122 363.528 297.659 C 363.729 295.587 365.013 293.78 366.897 292.918 C 380.32 288.097 389.908 283.274 396.621 276.525 C 403.333 270.738 406.209 264.952 406.209 258.202 C 407.169 252.415 404.291 244.701 396.621 237.951 C 389.908 230.236 378.403 223.486 364.02 217.7 C 336.213 205.163 296.9 195.52 251.834 193.591 Z" clip-rule="evenodd" style="fill: rgb(255, 255, 255);"/>
  <path fill-rule="evenodd" d="M 185.605 385.473 C 195.193 382.58 206.7 376.794 219.165 368.114 C 222.319 364.988 227.655 366.466 228.772 370.777 C 229.545 373.766 227.849 376.839 224.918 377.758 C 212.453 387.401 199.988 393.187 188.482 396.08 C 176.976 398.973 165.469 398.01 156.839 392.224 C 148.21 386.437 143.416 376.794 141.498 364.258 C 139.58 352.686 140.539 337.256 143.416 321.827 C 151.086 290.003 168.346 251.43 193.276 212.856 C 218.206 174.282 226.836 181.998 202.865 219.606 C 177.934 256.251 161.633 293.861 154.922 324.72 C 152.045 339.185 151.086 352.686 152.045 362.328 C 153.963 372.936 157.799 379.687 163.551 382.58 C 168.346 386.437 176.016 387.401 185.605 385.473 Z" clip-rule="evenodd" style="fill: rgb(255, 255, 255);"/>
</svg>